<svg xmlns="http://www.w3.org/2000/svg" viewBox="0 0 806.66 523"><defs><style>.cls-1{fill:#2e3192;}.cls-2,.cls-6{fill:#1b1464;}.cls-3{fill:#666;}.cls-4{fill:none;stroke:#fff;stroke-miterlimit:10;opacity:0.2;}.cls-5,.cls-6{font-size:208.04px;}.cls-5{fill:#f2f2f2;font-family:AvenirNext-UltraLight, Avenir Next;font-weight:100;}.cls-6{font-family:AvenirNext-Medium, Avenir Next;font-weight:500;letter-spacing:-0.05em;}.cls-7{letter-spacing:-0.03em;}</style></defs><title>Logo</title><g id="record"><circle cx="545.16" cy="261.5" r="261.5"/><circle class="cls-1" cx="544.53" cy="263.22" r="94.55"/><circle class="cls-2" cx="543.86" cy="262.79" r="84.15"/><circle class="cls-3" cx="545.16" cy="261.5" r="10.36"/></g><g id="reflections"><path class="cls-4" d="M743.6,512.69A156,156,0,1,1,918.21,254.05" transform="translate(-286.1 -123)"/><path class="cls-4" d="M720.83,211.2c95.79-61.36,223.18-33.45,284.54,62.33S1038.82,496.71,943,558.06" transform="translate(-286.1 -123)"/><path class="cls-4" d="M938.6,347.49a114,114,0,1,1-215.08,75.77" transform="translate(-286.1 -123)"/><path class="cls-4" d="M961.49,587.84c-111.55,71.46-259.91,39-331.37-72.6s-39-259.91,72.6-331.37" transform="translate(-286.1 -123)"/></g><g id="text_ollect"><text class="cls-5" transform="translate(289.02 312.83)">ollect</text></g><g id="text_rec"><text class="cls-6" transform="translate(0 314)">r<tspan class="cls-7" x="65.74" y="0">ec</tspan></text></g></svg>